<svg width="41" height="24" viewBox="0 0 41 24" fill="none" xmlns="http://www.w3.org/2000/svg">
<path d="M0.0351562 0.785156H2.39062V7.89844H11.3438V0.785156H13.6992V18H11.3438V9.94922H2.39062V18H0.0351562V0.785156Z" fill="white"/>
<path d="M22.2656 5.16797C23.1562 5.16797 24.0195 5.37891 24.8555 5.80078C25.6914 6.21484 26.3281 6.75391 26.7656 7.41797C27.1875 8.5078 27.4688 8.78906 27.6094 9.63281C27.7344 10.2109 27.7969 11.1328 27.7969 12.3984H18.5977C18.6367 13.6719 18.9375 14.6953 19.5 15.4688C20.0625 16.2344 20.9336 16.6172 22.1133 16.6172C23.2148 16.6172 24.0938 16.2539 24.75 15.5273C25.125 15.1055 25.3906 14.6172 25.5469 14.0625H27.6211C27.5664 14.5234 27.3828 15.0391 27.0703 15.6094C26.7656 16.1719 26.4219 16.6328 26.0391 16.9922C25.3984 17.6172 24.6055 18.0391 23.6602 18.2578C23.1523 18.3828 22.5781 18.4453 21.9375 18.4453C20.375 18.4453 19.0508 17.8789 17.9648 16.7461C16.8789 15.6055 16.3359 14.0117 16.3359 11.9648C16.3359 9.94922 16.8828 8.3125 17.9766 7.05469C19.0703 5.79688 20.5 5.16797 22.2656 5.16797ZM25.6289 10.7227C25.543 9.80859 25.3438 9.07812 25.0312 8.53125C24.4531 7.51562 23.4883 7.00781 22.1367 7.00781C21.168 7.00781 20.3555 7.35938 19.6992 8.0625C19.043 8.75781 18.6953 9.64453 18.6562 10.7227H25.6289Z" fill="white"/>
<path d="M38.2383 5.44922H40.5703C40.2734 6.25391 39.6133 8.08984 38.5898 10.957C37.8242 13.1133 37.1836 14.8711 36.668 16.2305C35.4492 19.4336 34.5898 21.3867 34.0898 22.0898C33.5898 22.793 32.7305 23.1445 31.5117 23.1445C31.2148 23.1445 30.9844 23.1328 30.8203 23.1094C30.6641 23.0859 30.4688 23.043 30.2344 22.9805V21.0586C30.6016 21.1602 30.8672 21.2227 31.0312 21.2461C31.1953 21.2695 31.3398 21.2812 31.4648 21.2812C31.8555 21.2812 32.1406 21.2148 32.3203 21.082C32.5078 20.957 32.6641 20.8008 32.7891 20.6133C32.8281 20.5508 32.9688 20.2305 33.2109 19.6523C33.4531 19.0742 33.6289 18.6445 33.7383 18.3633L29.0977 5.44922H31.4883L34.8516 15.668L38.2383 5.44922Z" fill="white"/>
</svg>
